PathFileType	4	(X/Y/Z)	c:/Users/goper/Files/vsCode/490R/osim_files/C17/C17_Slow_01.trc
DataRate	CameraRate	NumFrames	NumMarkers	Units                	OrigDataRate	OrigDataStartFrame	OrigNumFrames
250.00	250.00	9	36	mm	250.0	1317	2632
                Frame#	Time	LPSIS			LASIS			LTH1			LTH2			LTH3			LTH4			LLFE			LMFE			LSH1			LSH2			LSH3			LSH4			LLMAL			LMMAL			LCAL			LMTP5			LTOE			LMTP1			RPSIS			RASIS			RTH1			RTH2			RTH3			RTH4			RLFE			RMFE			RSH1			RSH2			RSH3			RSH4			RLMAL			RMMAL			RCAL			RMTP1			RTOE			RMTP5		
		X1	Y1	Z1	X2	Y2	Z2	X3	Y3	Z3	X4	Y4	Z4	X5	Y5	Z5	X6	Y6	Z6	X7	Y7	Z7	X8	Y8	Z8	X9	Y9	Z9	X10	Y10	Z10	X11	Y11	Z11	X12	Y12	Z12	X13	Y13	Z13	X14	Y14	Z14	X15	Y15	Z15	X16	Y16	Z16	X17	Y17	Z17	X18	Y18	Z18	X19	Y19	Z19	X20	Y20	Z20	X21	Y21	Z21	X22	Y22	Z22	X23	Y23	Z23	X24	Y24	Z24	X25	Y25	Z25	X26	Y26	Z26	X27	Y27	Z27	X28	Y28	Z28	X29	Y29	Z29	X30	Y30	Z30	X31	Y31	Z31	X32	Y32	Z32	X33	Y33	Z33	X34	Y34	Z34	X35	Y35	Z35	X36	Y36	Z36

1317	5.26400	-90.50006	1065.75110	297.46890	-287.04929	1016.56714	399.78128	-131.87495	713.58942	426.92542	-131.13858	669.98596	417.80630	-192.92273	708.50781	424.99210	-184.58026	665.65448	415.47894	-92.06526	507.36295	385.43900	-81.91609	516.64850	262.75464	35.08863	300.03479	378.99146	45.63773	258.30695	371.79501	-23.98123	277.34943	374.12360	-3.95640	239.11285	366.17548	77.56946	121.10924	342.40192	68.84486	129.73442	255.48273	163.30678	99.14671	302.66711	-20.42737	40.29634	359.50040	-76.29951	54.68787	288.86871	-55.28947	39.43699	240.86815	-95.72151	1058.44495	223.35211	-273.41617	1021.17322	129.22066	-295.65457	733.74701	74.50888	-314.76340	690.61908	82.29700	-354.31503	752.18628	84.66315	-362.50476	705.67322	88.99962	-431.78613	510.10107	112.32412	-405.77972	505.63779	238.21501	-463.81570	302.33139	104.83459	-491.70044	266.57059	116.19263	-516.86053	333.82730	108.07220	-538.21362	291.99152	117.40675	-590.19391	117.90945	143.17441	-607.82843	152.02155	228.13875	-558.43066	50.20333	195.26097	-756.14386	173.98914	220.03665	-750.36975	200.07074	174.00577	-726.06354	136.91759	112.77757
1318	5.26800	-95.92917	1064.69617	297.02634	-292.34137	1015.57861	399.85559	-136.17307	713.22717	427.12158	-135.21095	669.62988	418.00769	-196.99962	707.95154	425.35510	-188.68643	665.08685	415.70761	-95.37323	507.15860	385.65610	-85.64325	516.31635	263.01715	33.13761	300.65515	379.35104	43.96802	258.94345	372.16840	-25.84348	277.57077	374.46399	-5.43690	239.49428	366.49240	76.82724	121.89365	342.76520	68.15725	130.60736	255.82565	162.70934	100.49953	303.09296	-20.60328	40.32959	359.59006	-76.32422	54.70819	288.91696	-55.41714	39.50844	240.95285	-101.35097	1057.17212	222.89095	-278.72516	1020.20947	129.50301	-301.93472	733.14142	74.65210	-321.27777	690.09851	82.42191	-361.08221	752.29883	85.13812	-369.13416	705.28149	89.28711	-439.10574	510.03165	112.53492	-411.87387	505.07184	238.13547	-471.60513	302.23605	105.09696	-498.38599	266.67426	115.55650	-524.99347	334.04025	107.96119	-546.29663	291.67020	118.40868	-598.87494	118.23357	143.83705	-615.44672	152.58018	228.97562	-566.79248	50.63775	195.81145	-763.64819	175.47621	222.22281	-758.08618	201.47568	176.10634	-735.31805	137.79628	114.13499
1319	5.27200	-101.13849	1063.72668	296.60016	-297.60184	1014.71869	399.94376	-140.53815	712.86261	427.28580	-139.36900	669.29889	418.19131	-201.36554	707.31958	425.50195	-192.79391	664.50391	415.93631	-98.94319	506.87589	385.87430	-89.32755	516.26947	263.36469	31.12328	301.25491	379.74725	42.26556	259.66260	372.55051	-27.72859	277.68982	374.80301	-7.01877	239.79341	366.84720	76.09572	122.74429	343.10898	67.33417	131.47804	256.20816	162.06227	101.78436	303.44785	-20.85846	40.21891	359.69116	-76.36284	54.71823	288.95511	-55.52050	39.53317	241.01852	-106.79184	1056.01099	222.45633	-284.11520	1019.29883	129.78519	-308.02676	732.66888	74.77757	-327.96155	689.66797	82.53188	-364.72754	751.38739	88.01142	-375.86899	705.06769	89.55470	-446.61447	510.02930	112.81723	-418.08246	504.78708	238.03447	-479.14859	302.12091	105.41338	-506.51956	266.63968	115.94424	-532.59357	333.95062	108.32989	-553.57288	291.55313	118.23074	-606.94012	118.28300	144.59306	-622.48010	152.89455	229.90131	-574.52515	50.55698	196.34996	-770.73273	176.41917	224.45883	-765.38696	202.32106	178.28123	-743.55237	138.29050	115.90092
1320	5.27600	-106.25652	1063.02478	295.99948	-302.83548	1013.82935	400.00543	-144.97223	712.48706	427.43350	-143.61647	668.93646	418.40674	-205.91748	706.66791	425.65237	-197.10576	663.89563	416.13342	-102.53856	506.53583	386.15118	-91.30730	515.97382	261.93158	28.96563	301.87619	380.09723	40.46537	260.38351	372.94116	-29.70546	277.91809	375.13232	-8.73891	240.18452	367.21033	75.35992	123.58122	343.56403	66.64458	132.37288	256.62900	161.55128	103.29980	303.89664	-21.04949	40.21980	359.81976	-76.45724	54.74776	289.02429	-55.63297	39.58449	241.10916	-112.18424	1054.90991	222.07358	-289.65317	1018.34418	129.98940	-314.15536	732.23798	74.99326	-334.76355	689.21130	82.65611	-371.27530	751.19104	88.36436	-382.68762	704.87213	89.88640	-454.76358	510.66324	112.87550	-425.10855	504.44031	237.72728	-486.50641	302.00357	105.77068	-514.47766	266.32034	117.26171	-540.03687	333.72186	108.75334	-560.90936	291.31512	118.58140	-614.45642	118.09871	145.43300	-629.17511	152.96881	230.82036	-581.75458	50.25496	196.87956	-777.16199	176.90646	226.93040	-772.29388	202.69141	180.42186	-751.45026	138.39996	118.82603
1321	5.28000	-111.99991	1061.68127	295.79218	-308.23572	1012.90100	400.03592	-149.39125	712.06586	427.63388	-147.97050	668.48761	418.59894	-210.22180	706.02356	425.88715	-201.34474	663.31519	416.36444	-106.15993	506.21460	386.36160	-95.37347	515.66217	262.36514	26.83990	302.51331	380.51578	38.69436	261.15439	373.34372	-31.72572	278.10757	375.45251	-10.42334	240.55937	367.61072	74.51791	124.40657	344.04370	65.84030	133.37704	257.06552	160.77893	104.68195	304.40262	-21.20819	40.23227	359.93753	-76.50471	54.76943	289.08521	-55.49334	39.36211	241.19733	-117.56393	1053.89160	221.83961	-295.40585	1017.24854	130.03780	-324.51489	731.35205	75.38481	-341.37134	688.81549	82.85891	-378.17889	751.20123	88.61914	-389.79694	704.84668	90.13610	-462.02267	510.40622	113.55304	-432.02213	504.99319	238.55544	-493.73053	301.84250	106.17165	-520.94806	266.29236	116.88948	-547.22327	333.38678	109.32734	-568.21069	290.92944	119.39890	-622.12689	117.49652	146.98647	-635.37262	152.69839	231.83046	-588.29022	49.76372	197.48824	-783.20544	176.84970	229.07224	-778.62463	202.52730	182.57060	-758.57458	138.12393	120.83357
1322	5.28400	-117.07753	1060.89941	295.24570	-313.63477	1011.96130	400.05859	-154.03383	711.56512	427.88132	-152.37968	668.00616	418.80576	-214.83806	705.37848	426.06192	-205.79170	662.59961	416.52954	-110.01502	505.86142	386.59366	-99.51274	515.37103	262.86563	24.64130	303.18631	380.95255	36.74966	261.87442	373.77197	-33.68161	278.24008	375.87640	-12.22668	240.87286	367.99054	73.73486	125.28953	344.51144	64.94153	134.25916	257.55429	160.16988	106.20394	304.89713	-21.22639	40.36805	360.09085	-76.53810	54.79734	289.14813	-55.52016	39.07978	241.52438	-123.19333	1052.59973	221.41022	-301.27045	1016.04639	129.91335	-331.20715	731.04156	75.42851	-350.25940	688.81805	82.67119	-386.40262	751.74420	88.31390	-399.05042	705.61591	89.57893	-469.80093	510.57068	113.96996	-439.43298	505.00772	238.70163	-500.75293	301.71805	106.59161	-527.81879	266.04465	117.37862	-554.39551	333.10135	109.96692	-575.13831	290.48190	120.10986	-628.48535	116.91058	148.01855	-641.11182	152.15286	232.88118	-594.29620	49.17044	198.13692	-789.03119	176.05345	230.96143	-784.52631	202.04466	184.76889	-765.12921	137.52705	122.90117
1323	5.28800	-122.86937	1059.50708	295.11557	-318.95963	1010.90210	400.11328	-158.72736	710.99207	428.04568	-156.82620	667.47888	419.03149	-219.54781	704.54779	426.25348	-210.29962	661.84375	416.70230	-113.86956	505.41052	386.81973	-103.63560	514.99329	263.25803	22.29466	303.76758	381.41705	34.82093	262.61804	374.29770	-35.79752	278.37628	376.24472	-13.96104	241.22295	368.46353	72.87358	126.17455	344.96249	64.07730	135.25475	258.07739	159.43660	107.69852	305.43799	-21.40808	40.34377	360.26352	-76.68592	54.68050	289.22577	-55.51511	39.30315	241.51004	-128.64861	1051.39661	221.11240	-306.74164	1015.11609	129.78531	-338.08224	730.89337	75.49240	-357.73114	688.76056	82.84093	-393.17557	751.53040	88.88907	-406.59134	705.83411	89.85521	-477.65210	510.71616	114.41448	-446.99292	505.34317	238.91356	-507.58035	301.50781	107.05471	-534.72052	265.77679	118.54434	-561.59576	332.96503	110.65093	-581.83392	289.94095	120.91220	-634.32178	116.11812	149.09396	-646.32977	151.37445	234.06320	-599.67303	48.30517	198.95035	-794.17712	175.28061	233.31752	-790.06042	201.04880	186.86374	-771.04871	136.55386	124.80896
1324	5.29200	-128.39690	1058.42993	294.82660	-324.38608	1009.88403	400.19397	-163.45973	710.40686	428.27774	-161.51411	666.80206	419.21570	-224.33925	703.65717	426.36890	-214.80981	661.05225	416.92825	-117.77692	505.00473	387.01639	-107.76962	514.50238	263.54648	19.88281	304.44086	381.85773	32.64703	263.26254	374.78766	-37.93399	278.51257	376.61914	-15.84101	241.46211	368.86685	72.01637	127.05176	345.50696	63.16394	136.35072	258.60361	158.72884	109.27240	305.99927	-21.58374	40.30356	360.42444	-76.72410	54.67910	289.33441	-55.63063	39.29729	241.69727	-134.01978	1050.33813	220.98294	-312.13306	1014.30609	129.66547	-345.28079	730.80707	75.51172	-365.29559	688.84778	83.02400	-400.31949	751.99701	89.22302	-414.07816	705.99756	90.05808	-485.76480	510.91302	114.86528	-454.59271	505.65009	238.77135	-514.30042	301.27005	107.57405	-540.26654	265.30566	118.60976	-568.23376	332.17706	111.61317	-588.39728	289.27957	121.79463	-639.65198	115.14124	150.28154	-651.13464	150.30347	235.32114	-604.47443	47.37713	199.85878	-799.00000	173.84393	235.41042	-795.26129	199.62920	188.95804	-776.38177	135.25349	126.71651
1325	5.29600	-133.73524	1057.58130	294.40161	-329.74805	1008.89648	400.23392	-168.29094	709.81140	428.47806	-165.31691	666.84314	420.06833	-229.15562	702.86298	426.56812	-219.50761	660.23920	417.05225	-121.88315	504.48331	387.22833	-111.99635	513.89105	263.78946	17.45576	305.06366	382.31839	30.66151	264.02496	375.30478	-40.15863	278.58749	377.04562	-17.66955	241.80634	369.29181	71.02333	127.97556	346.07315	62.24684	137.32974	259.08545	157.93510	110.96415	306.58926	-21.77927	40.26101	360.56943	-76.76180	54.68003	289.46048	-55.67449	39.42974	241.72954	-139.90021	1048.98914	220.71495	-317.56180	1013.54907	129.54478	-352.69135	730.68500	75.62163	-373.00168	688.90735	83.30772	-407.58438	751.98413	89.56271	-421.50916	706.17889	90.40928	-493.77866	511.15295	115.31490	-462.55746	506.18985	239.19003	-520.67126	300.97241	108.16384	-547.62286	264.50168	120.37664	-575.12750	331.36206	112.60905	-594.80176	288.47031	122.76806	-644.40411	113.96743	151.53624	-655.67908	149.02153	236.60750	-608.76318	46.27084	200.98743	-803.58435	172.01692	237.46501	-800.07788	197.86296	191.01398	-781.48346	133.75058	128.51900
